<svg width="28" height="28" viewBox="0 0 28 28" fill="none" xmlns="http://www.w3.org/2000/svg">
<circle cx="14" cy="14" r="14" fill="white"/>
<path d="M5.5 11.1083C7.04306 11.2694 8.4735 11.6597 9.79465 12.2766C11.2928 12.9761 12.586 13.7852 13.6788 14.701L14 14.9702L14.3212 14.701C15.414 13.7852 16.7072 12.9761 18.2053 12.2766C19.5265 11.6597 20.9569 11.2694 22.5 11.1083V20.0596C20.9406 20.2305 19.4379 20.5924 17.993 21.1457C16.5331 21.7046 15.2015 22.4438 14 23.3639C12.7998 22.4442 11.4731 21.705 10.0218 21.146C8.58292 20.5918 7.0752 20.2298 5.5 20.0591V11.1083ZM13.7108 22.986L14 23.191L14.2892 22.986C15.4421 22.1687 16.6602 21.509 17.9439 21.0057L17.944 21.0057C19.2272 20.5022 20.5592 20.1637 21.9409 19.9904L22.3786 19.9354V19.4943V11.8506V11.2647L21.8 11.3568C20.2891 11.5972 18.8355 12.0694 17.4406 12.7718C16.188 13.4024 15.0418 14.1969 14.0028 15.1541C12.9803 14.1968 11.8469 13.3984 10.6036 12.7601C9.21389 12.0464 7.74275 11.5781 6.19239 11.3556L5.62139 11.2737V11.8506V19.5206V19.9673L6.06519 20.0175C7.44473 20.1735 8.77462 20.5029 10.056 21.0057L10.0561 21.0057C11.3398 21.509 12.5579 22.1687 13.7108 22.986ZM11.882 4.46966L11.8818 4.46982C11.3053 5.04577 11.0104 5.75381 11.0104 6.56662C11.0104 7.38285 11.3122 8.09212 11.8989 8.66738C12.4854 9.24233 13.2042 9.53448 14.0276 9.53448C14.8506 9.53448 15.5692 9.24227 16.1556 8.66738C16.7423 8.09212 17.0441 7.38285 17.0441 6.56662C17.0441 5.75073 16.7422 5.0417 16.1556 4.4665C15.5664 3.88895 14.8376 3.5994 14 3.5994C13.1767 3.5994 12.4608 3.89188 11.882 4.46966ZM14.0276 9.63389C13.1311 9.63389 12.3907 9.33701 11.776 8.74212C11.1634 8.14927 10.8614 7.43455 10.8614 6.56662C10.8614 5.69918 11.1633 4.98466 11.776 4.39176C12.3907 3.79688 13.1311 3.5 14.0276 3.5C14.9025 3.5 15.6343 3.79502 16.2509 4.39176C16.8636 4.98466 17.1655 5.69918 17.1655 6.56662C17.1655 7.43455 16.8635 8.14927 16.2509 8.74212C15.6343 9.33887 14.9025 9.63389 14.0276 9.63389Z" fill="black" fill-opacity="0.5" stroke="#F67952"/>
</svg>
