<svg width="77" height="71" viewBox="0 0 77 71" fill="none" xmlns="http://www.w3.org/2000/svg">
<ellipse cx="38.3539" cy="35.6768" rx="37.6615" ry="35.3077" fill="#F67952"/>
<g clip-path="url(#clip0_3680_2905)">
<path fill-rule="evenodd" clip-rule="evenodd" d="M50.1349 22.8102C53.8884 24.9978 56.5293 29.4394 56.4129 34.6209C56.2677 41.0888 51.235 46.7934 42.6547 51.8889C41.3826 52.645 40.0424 53.6251 38.4998 53.6251C36.9858 53.6251 35.5883 52.6271 34.3431 51.8871C25.7664 46.7934 20.7318 41.087 20.5867 34.6209C20.4703 29.4394 23.1112 24.9996 26.8647 22.8102C30.3764 20.7659 34.7875 20.7534 38.4998 23.7723C42.2121 20.7534 46.6232 20.7641 50.1349 22.8102ZM48.3307 25.908C45.8331 24.4531 42.712 24.5051 40.0102 27.2392C39.8121 27.438 39.5767 27.5957 39.3175 27.7034C39.0583 27.811 38.7804 27.8664 38.4998 27.8664C38.2191 27.8664 37.9413 27.811 37.6821 27.7034C37.4229 27.5957 37.1875 27.438 36.9894 27.2392C34.2876 24.5051 31.1665 24.4531 28.6689 25.908C26.0818 27.4166 24.0823 30.6165 24.17 34.5438C24.2704 39.0427 27.825 43.8497 36.1742 48.8091C36.9052 49.2444 37.6685 49.8016 38.4998 50.0328C39.3311 49.8016 40.0944 49.2444 40.8254 48.8091C49.1745 43.8497 52.7292 39.0445 52.8295 34.542C52.9191 30.6183 50.9178 27.4166 48.3307 25.908Z" fill="white"/>
</g>
<defs>
<clipPath id="clip0_3680_2905">
<rect width="43" height="43" fill="white" transform="translate(17 16)"/>
</clipPath>
</defs>
</svg>
