<svg width="18" height="14" viewBox="0 0 18 14" fill="none" xmlns="http://www.w3.org/2000/svg">
<path d="M10.3089 0.752656C10.3089 0.0832117 9.44167 -0.251511 8.93396 0.221427L5.90958 3.04283C5.78982 3.1544 5.64767 3.24288 5.49123 3.3032C5.3348 3.36352 5.16716 3.3945 4.99789 3.39438H2.57723C1.8937 3.39438 1.23818 3.64763 0.754852 4.09842C0.271529 4.54921 0 5.16061 0 5.79813V8.20187C0 8.83939 0.271529 9.45079 0.754852 9.90158C1.23818 10.3524 1.8937 10.6056 2.57723 10.6056H4.99789C5.16716 10.6055 5.3348 10.6365 5.49123 10.6968C5.64767 10.7571 5.78982 10.8456 5.90958 10.9572L8.93396 13.7786C9.44167 14.2515 10.3089 13.9168 10.3089 13.2473V0.752656ZM6.82063 3.89255L9.0203 1.84095V12.1596L6.82063 10.108C6.58129 9.88475 6.29713 9.70762 5.98438 9.58678C5.67163 9.46593 5.33642 9.40374 4.99789 9.40375H2.57723C2.23547 9.40375 1.9077 9.27712 1.66604 9.05173C1.42438 8.82633 1.28861 8.52063 1.28861 8.20187V5.79813C1.28861 5.47937 1.42438 5.17367 1.66604 4.94827C1.9077 4.72288 2.23547 4.59625 2.57723 4.59625H4.99789C5.33637 4.59634 5.67156 4.53424 5.98431 4.4135C6.29706 4.29276 6.58124 4.11574 6.82063 3.89255ZM13.417 3.05425C13.3695 2.98834 13.3084 2.93189 13.2374 2.88813C13.1663 2.84438 13.0866 2.81421 13.003 2.79935C12.9193 2.78449 12.8333 2.78525 12.75 2.80158C12.6667 2.81791 12.5876 2.84949 12.5174 2.89448C12.4473 2.93948 12.3873 2.99701 12.3412 3.06373C12.295 3.13046 12.2634 3.20507 12.2483 3.28324C12.2333 3.36141 12.2349 3.44159 12.2533 3.51915C12.2716 3.59671 12.3063 3.67011 12.3552 3.73511C13.1832 4.85886 13.571 5.94415 13.571 7C13.571 8.05645 13.1832 9.14234 12.3552 10.2655C12.3063 10.3305 12.2716 10.4039 12.2533 10.4814C12.2349 10.559 12.2333 10.6392 12.2483 10.7174C12.2634 10.7955 12.295 10.8701 12.3412 10.9369C12.3873 11.0036 12.4473 11.0611 12.5174 11.1061C12.5876 11.1511 12.6667 11.1827 12.75 11.199C12.8333 11.2153 12.9193 11.2161 13.003 11.2013C13.0866 11.1864 13.1663 11.1562 13.2374 11.1125C13.3084 11.0687 13.3695 11.0123 13.417 10.9464C14.361 9.66636 14.859 8.3479 14.859 7C14.859 5.6527 14.361 4.33484 13.417 3.05425ZM15.2636 0.555548C15.1398 0.445577 14.9743 0.38598 14.8033 0.389868C14.6324 0.393757 14.4702 0.460811 14.3523 0.576281C14.2343 0.69175 14.1705 0.846177 14.1746 1.00559C14.1788 1.165 14.2507 1.31634 14.3745 1.42631C15.9124 2.79224 16.712 4.87449 16.712 7C16.712 9.12612 15.9124 11.2084 14.3745 12.5743C14.3132 12.6287 14.264 12.6939 14.2297 12.7661C14.1954 12.8383 14.1767 12.9161 14.1746 12.995C14.1726 13.0739 14.1872 13.1525 14.2177 13.2261C14.2481 13.2998 14.2939 13.3671 14.3523 13.4243C14.4106 13.4815 14.4805 13.5274 14.5579 13.5594C14.6353 13.5914 14.7187 13.6088 14.8033 13.6107C14.888 13.6127 14.9722 13.599 15.0512 13.5706C15.1301 13.5422 15.2023 13.4995 15.2636 13.4451C17.1083 11.8063 18 9.38151 18 7C18 4.61909 17.1083 2.1943 15.2636 0.555548Z" fill="#F67952"/>
</svg>
