<svg width="77" height="71" viewBox="0 0 77 71" fill="none" xmlns="http://www.w3.org/2000/svg">
<ellipse cx="38.3539" cy="35.6768" rx="37.6615" ry="35.3077" fill="#F67952"/>
<path d="M36.9107 19.25H33.6607C33.2297 19.25 32.8164 19.4212 32.5117 19.726C32.2069 20.0307 32.0357 20.444 32.0357 20.875C32.0357 21.306 32.2069 21.7193 32.5117 22.024C32.8164 22.3288 33.2297 22.5 33.6607 22.5V25.75H31.7367C31.9292 25.2296 32.0304 24.6798 32.0357 24.125C32.0357 23.0519 31.6815 22.0088 31.0282 21.1574C30.375 20.3061 29.459 19.6941 28.4225 19.4163C27.3859 19.1386 26.2867 19.2106 25.2953 19.6213C24.3038 20.0319 23.4756 20.7582 22.939 21.6875C22.8306 21.8724 22.7598 22.0769 22.7308 22.2892C22.7018 22.5015 22.715 22.7175 22.7698 22.9247C22.8246 23.1319 22.9198 23.3262 23.05 23.4964C23.1801 23.6667 23.3427 23.8095 23.5283 23.9166C23.7139 24.0238 23.9188 24.0932 24.1314 24.1208C24.3439 24.1484 24.5598 24.1337 24.7666 24.0776C24.9734 24.0214 25.1671 23.9249 25.3364 23.7936C25.5058 23.6623 25.6475 23.4988 25.7535 23.3125C25.8963 23.0657 26.1015 22.8607 26.3485 22.7182C26.5955 22.5756 26.8755 22.5003 27.1607 22.5C27.5917 22.5 28.005 22.6712 28.3098 22.976C28.6145 23.2807 28.7857 23.694 28.7857 24.125C28.7857 24.556 28.6145 24.9693 28.3098 25.274C28.005 25.5788 27.5917 25.75 27.1607 25.75C26.7297 25.75 26.3164 25.9212 26.0117 26.226C25.7069 26.5307 25.5357 26.944 25.5357 27.375C25.5357 27.806 25.7069 28.2193 26.0117 28.524C26.3164 28.8288 26.7297 29 27.1607 29C27.5917 29 28.005 29.1712 28.3098 29.476C28.6145 29.7807 28.7857 30.194 28.7857 30.625C28.7857 31.056 28.6145 31.4693 28.3098 31.774C28.005 32.0788 27.5917 32.25 27.1607 32.25C26.8755 32.2497 26.5955 32.1744 26.3485 32.0318C26.1015 31.8893 25.8963 31.6843 25.7535 31.4375C25.6475 31.2512 25.5058 31.0877 25.3364 30.9564C25.1671 30.8251 24.9734 30.7286 24.7666 30.6724C24.5598 30.6163 24.3439 30.6016 24.1314 30.6292C23.9188 30.6568 23.7139 30.7262 23.5283 30.8334C23.3427 30.9405 23.1801 31.0833 23.05 31.2536C22.9198 31.4238 22.8246 31.6181 22.7698 31.8253C22.715 32.0325 22.7018 32.2485 22.7308 32.4608C22.7598 32.6731 22.8306 32.8776 22.939 33.0625C23.4756 33.9918 24.3038 34.7181 25.2953 35.1287C26.2867 35.5394 27.3859 35.6114 28.4225 35.3337C29.459 35.0559 30.375 34.4439 31.0282 33.5926C31.6815 32.7412 32.0357 31.6981 32.0357 30.625C32.0304 30.0702 31.9292 29.5204 31.7367 29H33.6607V33.875C33.6607 34.306 33.8319 34.7193 34.1367 35.024C34.4414 35.3288 34.8547 35.5 35.2857 35.5C35.7167 35.5 36.13 35.3288 36.4348 35.024C36.7395 34.7193 36.9107 34.306 36.9107 33.875V22.5C37.3417 22.5 37.755 22.3288 38.0598 22.024C38.3645 21.7193 38.5357 21.306 38.5357 20.875C38.5357 20.444 38.3645 20.0307 38.0598 19.726C37.755 19.4212 37.3417 19.25 36.9107 19.25ZM41.7857 27.375H43.4107C43.8416 27.3754 44.2546 27.5468 44.5593 27.8514C44.8639 28.1561 45.0353 28.5692 45.0357 29V30.625C45.0357 31.056 45.2069 31.4693 45.5117 31.774C45.8164 32.0788 46.2297 32.25 46.6607 32.25C47.0917 32.25 47.505 32.0788 47.8098 31.774C48.1145 31.4693 48.2857 31.056 48.2857 30.625V29C48.2844 27.7075 47.7704 26.4682 46.8564 25.5543C45.9425 24.6403 44.7032 24.1263 43.4107 24.125H41.7857C41.3547 24.125 40.9414 24.2962 40.6367 24.601C40.3319 24.9057 40.1607 25.319 40.1607 25.75C40.1607 26.181 40.3319 26.5943 40.6367 26.899C40.9414 27.2038 41.3547 27.375 41.7857 27.375ZM35.2857 42H33.6607C33.2299 41.9996 32.8168 41.8282 32.5121 41.5236C32.2075 41.2189 32.0361 40.8058 32.0357 40.375V38.75C32.0357 38.319 31.8645 37.9057 31.5598 37.601C31.255 37.2962 30.8417 37.125 30.4107 37.125C29.9797 37.125 29.5664 37.2962 29.2617 37.601C28.9569 37.9057 28.7857 38.319 28.7857 38.75V40.375C28.787 41.6675 29.301 42.9068 30.215 43.8207C31.129 44.7347 32.3682 45.2487 33.6607 45.25H35.2857C35.7167 45.25 36.13 45.0788 36.4348 44.774C36.7395 44.4693 36.9107 44.056 36.9107 43.625C36.9107 43.194 36.7395 42.7807 36.4348 42.476C36.13 42.1712 35.7167 42 35.2857 42ZM53.1607 40.375C53.5917 40.375 54.005 40.2038 54.3098 39.899C54.6145 39.5943 54.7857 39.181 54.7857 38.75C54.7857 38.319 54.6145 37.9057 54.3098 37.601C54.005 37.2962 53.5917 37.125 53.1607 37.125H48.2857V36.3125C48.2857 35.8815 48.1145 35.4682 47.8098 35.1635C47.505 34.8587 47.0917 34.6875 46.6607 34.6875C46.2297 34.6875 45.8164 34.8587 45.5117 35.1635C45.2069 35.4682 45.0357 35.8815 45.0357 36.3125V37.125H40.1607C39.7297 37.125 39.3164 37.2962 39.0117 37.601C38.7069 37.9057 38.5357 38.319 38.5357 38.75C38.5357 39.181 38.7069 39.5943 39.0117 39.899C39.3164 40.2038 39.7297 40.375 40.1607 40.375H48.5847C48.2174 41.8686 47.5391 43.2678 46.5941 44.4814C46.2068 43.9799 45.8642 43.4454 45.5703 42.884C45.4769 42.6877 45.3449 42.5122 45.1824 42.3678C45.0199 42.2235 44.83 42.1132 44.6241 42.0435C44.4182 41.9738 44.2004 41.9462 43.9836 41.9622C43.7668 41.9782 43.5554 42.0375 43.3619 42.1367C43.1685 42.2359 42.9969 42.3729 42.8573 42.5395C42.7178 42.7062 42.6131 42.8992 42.5494 43.1071C42.4858 43.3149 42.4645 43.5335 42.4868 43.7497C42.5092 43.966 42.5747 44.1755 42.6795 44.366C43.1176 45.2118 43.6402 46.0111 44.2395 46.7515C43.06 47.6078 41.7187 48.2154 40.2972 48.5374C39.8761 48.6294 39.5089 48.8849 39.2762 49.2477C39.0435 49.6105 38.9645 50.0509 39.0565 50.4719C39.1485 50.893 39.404 51.2603 39.7669 51.4929C40.1297 51.7256 40.57 51.8046 40.9911 51.7126C43.03 51.2615 44.9425 50.3611 46.5892 49.0769C48.2499 50.3621 50.1753 51.2624 52.2263 51.7126C52.6474 51.8053 53.088 51.7269 53.4513 51.4947C53.8145 51.2624 54.0707 50.8954 54.1633 50.4744C54.256 50.0533 54.1776 49.6127 53.9454 49.2494C53.7132 48.8862 53.3462 48.63 52.9251 48.5374C51.4948 48.2194 50.1431 47.617 48.9503 46.7661C50.4532 44.9168 51.4664 42.7189 51.8965 40.375H53.1607Z" fill="white"/>
</svg>
