<svg width="83" height="82" viewBox="0 0 83 82" fill="none" xmlns="http://www.w3.org/2000/svg">
<path d="M51.2058 49.743C51.2058 49.9084 51.1566 50.0701 51.0646 50.2075C50.9726 50.3449 50.8419 50.4519 50.689 50.5149C50.5361 50.5779 50.3679 50.594 50.2058 50.5613C50.0437 50.5286 49.895 50.4485 49.7785 50.3311C49.662 50.2137 49.5829 50.0644 49.5514 49.9021C49.5199 49.7397 49.5373 49.5717 49.6015 49.4193C49.6656 49.2668 49.7736 49.1369 49.9117 49.0459C50.0498 48.9549 50.2118 48.907 50.3771 48.9082C50.5975 48.9099 50.8082 48.9985 50.9634 49.1549C51.1187 49.3113 51.2058 49.5227 51.2058 49.743Z" fill="#263238"/>
<path d="M53.8649 62.9833C53.8649 63.1484 53.816 63.3098 53.7242 63.4471C53.6325 63.5843 53.5021 63.6913 53.3496 63.7545C53.1971 63.8177 53.0292 63.8342 52.8673 63.802C52.7053 63.7698 52.5566 63.6903 52.4398 63.5736C52.3231 63.4568 52.2436 63.3081 52.2114 63.1461C52.1791 62.9842 52.1957 62.8163 52.2589 62.6638C52.322 62.5112 52.429 62.3809 52.5663 62.2891C52.7036 62.1974 52.865 62.1484 53.0301 62.1484C53.2515 62.1484 53.4639 62.2364 53.6204 62.393C53.777 62.5495 53.8649 62.7619 53.8649 62.9833Z" fill="#263238"/>
<path d="M55.659 77.0319C56.1201 77.0319 56.4938 76.6582 56.4938 76.1971C56.4938 75.7361 56.1201 75.3623 55.659 75.3623C55.198 75.3623 54.8242 75.7361 54.8242 76.1971C54.8242 76.6582 55.198 77.0319 55.659 77.0319Z" fill="#263238"/>
<path d="M48.1776 35.0542C59.4796 49.3055 69.9629 66.7196 73.0194 71.0516C75.0977 73.9996 53.7231 83.8572 52.7111 81.6912C51.407 78.9233 43.5726 52.768 40.1087 37.9251C38.3835 30.5628 44.768 30.7583 48.1776 35.0542Z" fill="#EB9481"/>
<path d="M61.1315 51.8517L45.672 55.0982C44.3438 48.5638 43.4063 41.956 42.8645 35.31C42.2894 26.2693 46.6676 27.9389 51.2003 34.3391C55.7331 40.7394 61.1315 51.8517 61.1315 51.8517Z" fill="#FFC727"/>
<path d="M56.2154 42.5023C56.1001 42.6894 55.9676 42.8653 55.8197 43.0279C55.8612 42.7317 55.9295 42.4398 56.0237 42.156L56.2154 42.5023ZM44.9362 49.1066C44.8372 49.323 44.7445 49.5456 44.6641 49.7744C44.7012 49.9847 44.7383 50.1826 44.7754 50.3928C45.0115 50.0523 45.2184 49.6923 45.3938 49.3168C45.6658 48.7516 45.8533 48.1494 45.9503 47.5297C45.5388 48.0043 45.1973 48.5353 44.9362 49.1066ZM54.0635 51.7594C54.1025 52.2674 54.2064 52.7682 54.3727 53.2497L54.8303 53.157C54.6385 52.6588 54.3806 52.1888 54.0635 51.7594ZM50.4088 36.7266C49.8929 36.7965 49.3867 36.9252 48.9 37.11C48.3067 37.3196 47.7465 37.6133 47.2365 37.9819C47.8718 37.9308 48.4965 37.7892 49.0917 37.5614C49.5792 37.3841 50.0457 37.154 50.483 36.875C50.4623 36.8236 50.4375 36.774 50.4088 36.7266Z" fill="white"/>
<path d="M45.9623 52.2414C50.241 51.1154 54.5756 50.2134 58.9483 49.5391C59.0163 49.5391 59.0349 49.6318 58.9483 49.6504C54.6699 50.781 50.3353 51.6872 45.9623 52.3651C45.9128 52.3774 45.8943 52.2599 45.9623 52.2414Z" fill="#263238"/>
<path opacity="0.1" d="M58.8986 52.2968L45.6404 55.0795C44.3122 48.5451 43.3747 41.9373 42.833 35.2913C42.6042 31.6428 43.1793 29.7258 44.2429 29.1816L58.8986 52.2968Z" fill="black"/>
<path d="M53.7907 81.9239C53.7907 81.9239 7.7831 81.5652 6.54633 80.6871C6.26188 80.4892 20.0023 35.236 35.8082 26.6343C38.461 25.1935 43.2782 26.8507 45.7641 29.6829C53.1229 38.0682 53.7907 81.9239 53.7907 81.9239Z" fill="#FFC727"/>
<path d="M11.5428 72.1726C11.7736 72.7669 11.9153 73.392 11.9633 74.0277C11.2375 72.9968 10.7921 71.795 10.6709 70.54C11.0373 71.0402 11.3309 71.5899 11.5428 72.1726Z" fill="#FFC727"/>
<path d="M19.9955 78.2949C19.8967 78.9142 19.7093 79.5161 19.439 80.082C19.2321 80.5393 18.9793 80.9744 18.6845 81.3807H18.499C18.606 80.8637 18.7742 80.3614 18.9999 79.8842C19.253 79.309 19.5883 78.7736 19.9955 78.2949Z" fill="#FFC727"/>
<path d="M19.3213 63.3599C19.8945 63.6168 20.4293 63.9519 20.9105 64.3555C20.29 64.2569 19.6863 64.0716 19.1172 63.8052C18.5467 63.5469 18.0141 63.212 17.5342 62.8096C18.1532 62.9063 18.7551 63.0916 19.3213 63.3599Z" fill="#FFC727"/>
<path d="M25.2341 70.9342C25.8293 70.7064 26.454 70.5648 27.0892 70.5137C26.0619 71.2463 24.8582 71.6923 23.6016 71.8061C24.1032 71.442 24.6525 71.1487 25.2341 70.9342Z" fill="#FFC727"/>
<path d="M25.1217 42.5078C24.8962 41.9226 24.7546 41.3085 24.7012 40.6836C25.4255 41.7129 25.8708 42.9124 25.9936 44.1651C25.6251 43.6573 25.3314 43.0992 25.1217 42.5078Z" fill="#FFC727"/>
<path d="M25.3642 54.6478C25.62 54.0741 25.9551 53.5391 26.3598 53.0586C26.146 54.3002 25.6109 55.4643 24.8076 56.435C24.9093 55.8163 25.0966 55.2148 25.3642 54.6478Z" fill="#FFC727"/>
<path d="M32.227 31.6615C31.9735 32.2345 31.6381 32.7678 31.2314 33.2445C31.3331 32.6259 31.5204 32.0244 31.788 31.4574C32.0429 30.8832 32.3782 30.3481 32.7836 29.8682C32.6857 30.4897 32.4982 31.0937 32.227 31.6615Z" fill="#FFC727"/>
<path d="M34.1694 65.3575C33.8008 64.8497 33.5072 64.2915 33.2974 63.7002C33.0749 63.1141 32.9334 62.5004 32.877 61.876C33.6083 62.9017 34.0542 64.103 34.1694 65.3575Z" fill="#FFC727"/>
<path d="M33.6693 47.9381C34.2632 47.706 34.8885 47.5643 35.5245 47.5176C34.4951 48.2419 33.2956 48.6872 32.043 48.81C32.5398 48.4418 33.0877 48.1481 33.6693 47.9381Z" fill="#FFC727"/>
<path d="M33.953 76.9271C34.2065 76.3521 34.5418 75.8168 34.9486 75.3379C34.8479 75.9587 34.6605 76.5624 34.3921 77.1312C34.1385 77.7042 33.8031 78.2375 33.3965 78.7143C33.4953 78.0949 33.6827 77.4931 33.953 76.9271Z" fill="#FFC727"/>
<path d="M37.8985 39.3043C38.473 39.5586 39.0082 39.8939 39.4877 40.2999C38.868 40.2028 38.2658 40.0153 37.7006 39.7433C37.1263 39.4912 36.5911 39.158 36.1113 38.7539C36.7308 38.8488 37.3329 39.0342 37.8985 39.3043Z" fill="#FFC727"/>
<path d="M42.6358 70.9342C43.231 70.7064 43.8557 70.5648 44.4909 70.5137C43.9817 70.8815 43.424 71.177 42.8337 71.3918C42.2382 71.6176 41.6135 71.7571 40.9785 71.8061C41.4878 71.44 42.0456 71.1466 42.6358 70.9342Z" fill="#FFC727"/>
<path d="M42.9935 59.8111C43.5653 60.0706 44.0997 60.4055 44.5827 60.8067C43.9622 60.708 43.3585 60.5228 42.7894 60.2563C42.2163 59.9994 41.6814 59.6644 41.2002 59.2607C41.8208 59.3594 42.4244 59.5447 42.9935 59.8111Z" fill="#FFC727"/>
<path d="M44.9351 49.1068C45.1895 48.5323 45.5247 47.9971 45.9307 47.5176C45.8337 48.1373 45.6462 48.7395 45.3742 49.3047C45.122 49.879 44.7888 50.4142 44.3848 50.8939C44.4796 50.2745 44.6651 49.6723 44.9351 49.1068Z" fill="#FFC727"/>
<path d="M49.0785 37.0479L49.2083 37.5055L49.0661 37.5611C48.4709 37.7889 47.8462 37.9305 47.2109 37.9816C47.7209 37.613 48.2811 37.3194 48.8744 37.1097L49.0785 37.0479Z" fill="#FFC727"/>
<path d="M52.2635 77.0078C52.4897 77.5928 52.6313 78.2071 52.684 78.8321C51.9527 77.8064 51.5067 76.605 51.3916 75.3506C51.7601 75.8584 52.0538 76.4165 52.2635 77.0078Z" fill="#FFC727"/>
<path d="M53.1236 66.5757C52.9584 66.8524 52.768 67.1133 52.5547 67.3549C52.6438 66.7724 52.8166 66.2058 53.0679 65.6729L53.1236 66.5757Z" fill="#FFC727"/>
<path d="M32.7846 29.8682C32.5708 31.1098 32.0357 32.2739 31.2324 33.2445C31.3341 32.6259 31.5214 32.0244 31.789 31.4574C32.0439 30.8832 32.3791 30.3481 32.7846 29.8682ZM25.364 54.6467C25.0964 55.2137 24.9091 55.8152 24.8074 56.4339C25.6107 55.4632 26.1458 54.2991 26.3596 53.0575C25.955 53.538 25.6198 54.073 25.364 54.6467ZM19.0008 79.8767C18.7751 80.3539 18.6069 80.8563 18.4999 81.3732H18.6855C18.9802 80.967 19.233 80.5319 19.4399 80.0746C19.7102 79.5087 19.8976 78.9068 19.9964 78.2875C19.5893 78.7661 19.2539 79.3015 19.0008 79.8767ZM44.9358 49.106C44.6657 49.6715 44.4803 50.2737 44.3854 50.8932C44.7895 50.4134 45.1227 49.8782 45.3748 49.3039C45.6468 48.7387 45.8344 48.1365 45.9314 47.5168C45.5254 47.9963 45.1901 48.5315 44.9358 49.106ZM53.0613 65.6725C52.81 66.2055 52.6371 66.772 52.5481 67.3545C52.7613 67.1129 52.9518 66.852 53.117 66.5753L53.0613 65.6725ZM33.9471 76.927C33.6768 77.493 33.4894 78.0948 33.3906 78.7142C33.7972 78.2374 34.1326 77.7041 34.3862 77.1311C34.6546 76.5623 34.8419 75.9586 34.9427 75.3378C34.5381 75.8171 34.2048 76.3524 33.9533 76.927H33.9471ZM37.8924 39.3047C37.3269 39.0346 36.7247 38.8492 36.1053 38.7543C36.585 39.1584 37.1202 39.4916 37.6945 39.7437C38.2598 40.0157 38.8619 40.2033 39.4816 40.3003C39.004 39.8948 38.4709 39.5596 37.8986 39.3047H37.8924ZM42.9879 59.8102C42.4188 59.5438 41.8151 59.3585 41.1946 59.2599C41.6758 59.6635 42.2106 59.9986 42.7838 60.2555C43.3529 60.5219 43.9565 60.7072 44.5771 60.8058C44.096 60.4051 43.5636 60.0702 42.9941 59.8102H42.9879ZM19.3162 63.3597C18.75 63.0914 18.1481 62.9061 17.5291 62.8094C18.009 63.2118 18.5416 63.5467 19.1121 63.805C19.6812 64.0714 20.2849 64.2567 20.9054 64.3553C20.4261 63.9522 19.8934 63.6171 19.3224 63.3597H19.3162ZM52.2574 77.0074C52.0496 76.4164 51.758 75.8583 51.3917 75.3502C51.5068 76.6046 51.9528 77.806 52.6841 78.8317C52.6313 78.2067 52.4898 77.5924 52.2636 77.0074H52.2574ZM25.568 42.3409C25.3595 41.7491 25.0658 41.1908 24.6961 40.6837C24.7495 41.3085 24.8911 41.9227 25.1166 42.5079C25.3264 43.0992 25.62 43.6574 25.9885 44.1652C25.9401 43.5401 25.8005 42.9256 25.5742 42.3409H25.568ZM33.7492 63.5329C33.536 62.9419 33.2403 62.384 32.8711 61.8756C32.9276 62.5 33.069 63.1138 33.2916 63.6998C33.5014 64.2912 33.795 64.8493 34.1636 65.3571C34.1142 64.7328 33.9768 64.1187 33.7554 63.5329H33.7492ZM11.537 72.1902C11.3271 71.5989 11.0335 71.0408 10.665 70.533C10.7862 71.7879 11.2316 72.9898 11.9575 74.0206C11.9108 73.3873 11.7712 72.7643 11.5431 72.1717L11.537 72.1902ZM42.6292 70.9535C42.039 71.1659 41.4813 71.4593 40.9719 71.8254C41.6069 71.7764 42.2316 71.6368 42.8271 71.4111C43.4174 71.1963 43.9751 70.9008 44.4844 70.533C43.8521 70.5787 43.2296 70.714 42.6354 70.9349L42.6292 70.9535ZM49.0728 37.0661L48.8934 37.128C48.3001 37.3376 47.74 37.6313 47.23 37.9999C47.8652 37.9488 48.4899 37.8072 49.0851 37.5794L49.2273 37.5237L49.0728 37.0661ZM25.2341 70.9349C24.6439 71.1473 24.0862 71.4408 23.5769 71.8068C24.8335 71.6931 26.0372 71.247 27.0645 70.5144C26.4377 70.5678 25.8215 70.7094 25.2341 70.9349ZM33.6874 47.9373C33.095 48.1445 32.5365 48.4383 32.0301 48.8092C33.2828 48.6864 34.4823 48.2411 35.5116 47.5168C34.8799 47.5647 34.2588 47.7064 33.6689 47.9373H33.6874Z" fill="white"/>
<path d="M67.6862 43.9619C69.1972 43.0859 70.795 42.3689 72.4539 41.8223C74.6615 41.2039 79.4973 40.196 80.363 39.794L81.8286 39.7322L72.2313 67.312L59.2453 70.3112L37.7256 64.7458L45.5667 38.5387L47.0508 38.4521C47.0508 38.4521 49.784 39.2622 52.0411 39.6889C54.2982 40.1156 62.1146 40.4804 67.6862 43.9619Z" fill="white"/>
<path d="M57.3095 70.9845L65.9236 44.4374L44.6327 38.2412L36.4639 65.3325L57.3095 70.9845Z" fill="#263238"/>
<path d="M57.3086 70.9837L60.4191 71.1568L69.064 44.6097L65.9227 44.4365L57.3086 70.9837Z" fill="#455A64"/>
<path d="M60.4199 71.1576L69.0649 44.6104L82.4591 39.4902L72.5526 67.5462L60.4199 71.1576Z" fill="#263238"/>
<path d="M31.7024 29.0586C17.1148 40.8573 -1.69024 63.5767 0.121618 69.1483C0.74 71.1333 4.59871 75.4063 8.82844 75.6537C19.6254 76.272 31.8261 72.3206 39.797 69.3956C42.085 68.5608 28.122 54.1154 25.5371 54.4061C24.8807 54.4762 24.2374 54.6386 23.6263 54.8884C23.6263 54.5668 29.8101 48.5067 36.1486 35.2671C40.471 26.2449 34.8005 26.5603 31.7024 29.0586Z" fill="#EB9481"/>
<path d="M22.1416 58.4874C22.1416 58.4874 23.0506 57.6341 27.0887 52.3593C29.8899 48.7108 39.0296 41.6118 51.4405 45.1922C56.1959 46.565 57.309 50.4979 52.1146 49.9538C48.4599 49.5642 45.9308 48.9829 44.7311 49.1931C44.7311 49.1931 48.7444 53.1446 48.225 56.3664C47.7686 59.1816 47.1135 61.9609 46.2647 64.6836C45.7305 64.6421 45.1996 64.5657 44.6754 64.4548C44.3588 65.7088 43.6936 66.8476 42.7569 67.7395C41.8202 68.6313 40.6501 69.2398 39.3821 69.4946L22.1416 58.4874Z" fill="#EB9481"/>
<path d="M30.3418 49.3049C32.704 48.8287 37.7253 47.9012 42.0911 48.5752C46.9454 49.3173 56.0974 52.0629 55.51 55.6371C55.0833 58.2652 51.4967 57.4923 51.4967 57.4923C51.4967 57.4923 55.04 59.4216 54.131 61.7096C53.3023 63.7936 50.5629 63.0515 50.5629 63.0515C50.5629 63.0515 52.5108 64.5975 51.3297 66.4464C49.9074 68.6788 46.0549 65.0798 42.6723 66.094C41.9303 66.3475 30.3418 49.3049 30.3418 49.3049Z" fill="#EB9481"/>
<path d="M40.453 53.57C42.7471 53.4834 48.0096 54.6336 51.4663 57.4287C51.5467 57.4905 51.5405 57.5833 51.4663 57.54C47.9697 55.7903 44.2736 54.4718 40.4591 53.6132C40.4591 53.6132 40.4282 53.57 40.453 53.57Z" fill="#263238"/>
<path d="M39.8405 58.4932C41.8317 58.623 47.1993 60.0453 50.6066 63.0012C50.6808 63.0692 50.6684 63.1619 50.6066 63.1125C47.2065 61.1871 43.5989 59.654 39.8529 58.5426C39.8529 58.5426 39.8158 58.4932 39.8405 58.4932Z" fill="#263238"/>
<path d="M12.5684 59.272C14.3618 57.6086 19.4139 54.8939 24.1507 54.7578C24.2559 54.7578 24.3177 54.832 24.2188 54.8568C20.1773 55.8637 16.2734 57.3588 12.5932 59.3091C12.5932 59.3091 12.5437 59.3153 12.5684 59.272Z" fill="#263238"/>
<path d="M14.3574 43.7197L27.9927 51.7587C31.3403 45.9951 34.3427 40.0378 36.984 33.9183C40.4222 25.5331 35.7473 25.7186 29.3965 30.3317C23.0457 34.9449 14.3574 43.7197 14.3574 43.7197Z" fill="#FFC727"/>
<path d="M32.7846 29.8682C32.5709 31.1098 32.0357 32.2739 31.2325 33.2445C31.3342 32.6259 31.5215 32.0244 31.7891 31.4574C32.044 30.8832 32.3792 30.3481 32.7846 29.8682ZM14.8516 43.9982L15.1793 44.1899C15.2775 43.8874 15.3499 43.5771 15.3957 43.2623C15.1849 43.4889 14.9965 43.7354 14.833 43.9982H14.8516ZM25.1414 42.5079C25.3512 43.0992 25.6448 43.6574 26.0134 44.1652C25.8906 42.9125 25.4453 41.713 24.7209 40.6837C24.7684 41.3076 24.9037 41.9218 25.1229 42.5079H25.1414Z" fill="white"/>
<path d="M34.4166 41.2214C34.4166 41.1905 34.4166 41.1534 34.3671 41.1843L33.3715 42.4829C33.7982 41.5615 34.2064 40.6278 34.6083 39.6878C34.6083 39.6878 34.6083 39.6322 34.5588 39.6878C33.4643 41.6666 32.3759 43.6516 31.3123 45.649C30.2487 47.6464 29.0923 49.6005 28.0473 51.6102C27.6391 51.4494 27.4289 51.3443 27.1259 51.2392C27.0517 51.2392 26.996 51.2887 27.0579 51.332C27.3986 51.5982 27.7729 51.8185 28.1709 51.9874C29.4448 50.1323 30.5764 47.9618 31.6586 45.9706C32.1822 44.9935 32.6831 44.0021 33.1613 42.9962C33.614 42.4296 34.0332 41.837 34.4166 41.2214Z" fill="#263238"/>
<path d="M28.5978 48.9507C24.9136 46.5233 21.1076 44.286 17.1948 42.2474C17.1817 42.2446 17.168 42.2462 17.1558 42.2519C17.1436 42.2576 17.1336 42.2671 17.1273 42.279C17.121 42.2909 17.1188 42.3045 17.1209 42.3178C17.123 42.331 17.1295 42.3433 17.1392 42.3526C20.8244 44.7836 24.6325 47.0231 28.5483 49.062C28.604 49.0991 28.6596 48.994 28.5978 48.9507Z" fill="#263238"/>
<path d="M43.5879 37.9882C40.0569 37.8892 37.0145 32.6453 36.3713 28.9165C36.3281 28.6568 37.435 26.4986 38.6532 23.8149C39.3891 22.1761 40.1682 20.3395 40.7557 18.6143L50.6869 24.9465C49.3316 26.8933 48.2205 28.9992 47.3785 31.2169C47.2959 31.4556 47.2379 31.7022 47.2054 31.9528C47.2054 31.9837 47.2054 32.027 47.2054 32.0764C46.9457 33.4987 46.2593 38.0624 43.5879 37.9882Z" fill="#EB9481"/>
<path d="M50.6813 24.939C49.3296 26.8893 48.2207 28.997 47.3791 31.2156C47.3038 31.4543 47.2459 31.6982 47.206 31.9453V32.0751C47.1751 32.2483 47.138 32.4771 47.0823 32.7306C41.5169 31.3702 39.6617 26.2933 39.3896 22.1625C39.8967 20.9937 40.3729 19.7755 40.7748 18.6191L50.6813 24.939Z" fill="#263238"/>
<path d="M42.4932 6.43771C39.9764 9.85736 38.1151 21.6252 39.9702 25.051C42.6602 29.9981 48.9986 32.6262 53.7045 28.9468C58.2681 25.3849 60.4263 9.99959 58.1754 6.68506C54.8547 1.8184 46.2035 1.39171 42.4932 6.43771Z" fill="#EB9481"/>
<path d="M49.283 17.3281C49.283 17.3281 49.215 17.359 49.215 17.39C49.1284 18.1877 48.8996 19.0781 48.1514 19.2451V19.2884C49.0418 19.2822 49.351 18.0949 49.283 17.3281Z" fill="#263238"/>
<path d="M48.6945 16.4063C47.4577 16.1404 46.9877 18.6696 48.1503 18.9231C49.3128 19.1766 49.7457 16.6351 48.6945 16.4063Z" fill="#263238"/>
<path d="M53.951 18.15C53.951 18.119 54.0067 18.1932 54.0005 18.2242C53.8336 19.0095 53.7779 19.9309 54.4396 20.3143C54.4396 20.3143 54.4396 20.3638 54.4396 20.3576C53.58 20.0793 53.679 18.8611 53.951 18.15Z" fill="#263238"/>
<path d="M54.7985 17.4514C56.0724 17.5813 55.7261 20.129 54.5388 20.0115C53.3515 19.894 53.7225 17.3463 54.7985 17.4514Z" fill="#263238"/>
<path d="M48.1143 14.0317C48.4666 14.0502 48.8195 14.0502 49.1718 14.0317C49.5444 14.0768 49.9216 14.0009 50.2477 13.8152C50.3374 13.7348 50.3986 13.6273 50.422 13.5091C50.4454 13.3909 50.4298 13.2683 50.3776 13.1597C50.2396 12.9646 50.0526 12.8093 49.8355 12.7095C49.6184 12.6096 49.3788 12.5687 49.1408 12.5908C48.6476 12.5637 48.1621 12.7225 47.7804 13.0361C47.6987 13.1112 47.6405 13.2085 47.6128 13.316C47.5852 13.4236 47.5893 13.5368 47.6246 13.6421C47.6599 13.7474 47.7249 13.8402 47.8118 13.9093C47.8987 13.9785 48.0038 14.0209 48.1143 14.0317Z" fill="#263238"/>
<path d="M55.9556 16.9249C55.621 16.8154 55.2928 16.6873 54.9724 16.5415C54.6023 16.4459 54.2754 16.2279 54.0448 15.9231C53.9872 15.8171 53.9669 15.6949 53.9871 15.5761C54.0073 15.4572 54.0668 15.3486 54.1561 15.2676C54.3554 15.1324 54.5873 15.0531 54.8276 15.0379C55.0679 15.0226 55.308 15.0721 55.5227 15.181C55.9897 15.3332 56.3839 15.6525 56.6296 16.0777C56.692 16.1784 56.7217 16.2959 56.7147 16.4142C56.7078 16.5325 56.6644 16.6457 56.5907 16.7384C56.5169 16.8311 56.4163 16.8988 56.3027 16.9321C56.189 16.9655 56.0678 16.963 55.9556 16.9249Z" fill="#263238"/>
<path d="M48.1136 24.0994C48.2682 24.3158 48.4104 24.6003 48.6948 24.6745C48.9878 24.7199 49.287 24.7031 49.5729 24.625C49.5729 24.625 49.6162 24.625 49.5729 24.6745C49.4333 24.808 49.2602 24.9014 49.072 24.9449C48.8837 24.9884 48.6872 24.9805 48.5031 24.9218C48.3502 24.852 48.2215 24.7383 48.1335 24.5952C48.0454 24.452 48.0018 24.2859 48.0084 24.118C47.9961 24.0685 48.0579 24.0685 48.1136 24.0994Z" fill="#263238"/>
<path d="M49.0227 21.8608C49.1679 22.2064 49.3829 22.5183 49.6542 22.7768C49.9256 23.0354 50.2474 23.2351 50.5996 23.3635C50.9054 23.4798 51.2259 23.5526 51.5519 23.5799C51.6733 23.5893 51.7953 23.5893 51.9167 23.5799C51.959 23.58 52.0001 23.5661 52.0337 23.5404C52.0672 23.5146 52.0914 23.4785 52.1023 23.4377C52.1023 23.4068 52.3496 21.7495 52.3496 21.7495C52.5537 21.8979 53.5864 22.6029 53.6235 22.2875C54.036 19.5501 54.1706 16.778 54.0254 14.0136C54.0254 13.927 53.8832 13.9208 53.877 14.0136C53.4813 16.5427 53.5307 19.1214 53.1721 21.6629C52.8057 21.401 52.4039 21.1928 51.9786 21.0446C51.9353 21.0446 51.7312 23.1223 51.725 23.1409C51.221 23.1029 50.7296 22.964 50.2803 22.7324C49.8309 22.5009 49.4327 22.1813 49.1093 21.7928C49.0598 21.7495 48.9856 21.7866 49.0227 21.8608Z" fill="#263238"/>
<path d="M51.206 23.2644C50.8112 23.6161 50.3317 23.859 49.8147 23.9694C49.5323 24.0239 49.2399 23.987 48.9799 23.8642C48.4109 23.5922 48.5037 23.0418 48.7016 22.5966C48.8081 22.3586 48.9431 22.1343 49.1035 21.9287C49.6435 22.5873 50.3804 23.0555 51.206 23.2644Z" fill="#263238"/>
<path d="M49.7961 23.9695C49.5137 24.024 49.2213 23.9872 48.9613 23.8644C48.3924 23.5923 48.4851 23.0419 48.683 22.5967C48.9957 22.6674 49.2755 22.8413 49.4774 23.0903C49.6793 23.3393 49.7915 23.649 49.7961 23.9695Z" fill="#FF9ABB"/>
<path d="M40.8543 16.907C42.8579 17.1667 44.2307 12.2753 44.2307 12.2753C44.2307 12.2753 46.8898 12.0218 48.8624 7.77352C48.8624 7.77352 49.32 12.6093 57.6249 13.8089C58.2553 12.4587 58.4457 10.9445 58.169 9.48025C58.5884 11.0825 58.8758 12.7163 59.0286 14.3655C59.0286 14.3655 62.7389 8.18165 57.6867 4.29821C55.6708 2.74607 52.1707 2.00401 46.2219 3.17894C46.2219 3.17894 46.0673 -0.234531 45.35 0.0128218C44.6327 0.260175 45.0037 3.51287 45.0037 3.51287C45.0037 3.51287 42.895 2.17716 42.3756 2.55437C41.8561 2.93159 43.9895 4.05704 43.9895 4.05704C42.8613 4.15068 41.804 4.64583 41.0098 5.45258C40.2155 6.25933 39.7369 7.32418 39.6609 8.45374C39.1785 12.3124 39.8649 16.7772 40.8543 16.907Z" fill="#263238"/>
<path d="M44.6454 4.15653C43.6405 3.85561 42.5604 3.92987 41.6061 4.3655C40.6518 4.80114 39.8882 5.56851 39.4572 6.52493C39.0315 7.67597 38.8749 8.9092 38.9996 10.1301C39.113 11.4066 39.3873 12.6636 39.8159 13.8713C39.8159 13.9393 39.9395 13.8713 39.921 13.828C39.5659 12.7079 39.3845 11.5401 39.383 10.3651C39.325 9.24207 39.446 8.11697 39.7416 7.03201C40.0618 6.04214 40.7426 5.20893 41.6488 4.69796C42.5551 4.18699 43.6204 4.03566 44.633 4.27402C44.6825 4.29258 44.7073 4.17509 44.6454 4.15653Z" fill="#263238"/>
<path d="M53.3951 1.92402C51.9417 1.8627 50.4865 1.99159 49.0664 2.30741C47.7049 2.54959 46.3941 3.02 45.1892 3.69877C45.1274 3.73588 45.1892 3.82864 45.2325 3.79772C47.7205 2.89222 50.3518 2.4439 52.9994 2.47438C55.442 2.44346 58.1257 3.16697 59.3501 5.47972C59.3557 5.48473 59.3626 5.48795 59.37 5.48896C59.3774 5.48998 59.3849 5.48873 59.3916 5.48539C59.3983 5.48205 59.4038 5.47677 59.4075 5.47024C59.4111 5.46371 59.4127 5.45624 59.412 5.4488C58.3916 3.10513 55.8068 2.06006 53.3951 1.92402Z" fill="#263238"/>
<path d="M41.8937 17.1053C41.8937 17.1053 40.5641 12.6776 38.6348 13.0363C36.7054 13.395 36.8786 19.2201 38.5606 20.5867C38.7652 20.7737 39.0055 20.9174 39.267 21.0092C39.5285 21.1011 39.8058 21.1392 40.0824 21.1213C40.359 21.1034 40.6291 21.0298 40.8766 20.905C41.124 20.7803 41.3438 20.6068 41.5226 20.395L41.8937 17.1053Z" fill="#EB9481"/>
<path d="M38.7217 14.7109C38.7217 14.7109 38.6722 14.7109 38.7217 14.7604C39.8905 15.7436 40.1873 17.2339 40.2553 18.6809C40.2246 18.5158 40.1575 18.3595 40.0589 18.2236C39.9603 18.0876 39.8326 17.9752 39.6852 17.8947C39.5378 17.8142 39.3742 17.7675 39.2065 17.758C39.0388 17.7485 38.8711 17.7765 38.7155 17.8399C38.6722 17.8399 38.7155 17.9203 38.7155 17.9203C38.9774 17.9192 39.2328 18.0013 39.4451 18.1546C39.6574 18.308 39.8155 18.5247 39.8966 18.7737C40.038 19.1887 40.1334 19.618 40.1811 20.0538C40.1811 20.1898 40.4408 20.2022 40.4408 20.0538V20.0167C41.053 18.3285 40.5088 15.4901 38.7217 14.7109Z" fill="#263238"/>
</svg>
