<svg width="98" height="95" viewBox="0 0 98 95" fill="none" xmlns="http://www.w3.org/2000/svg">
<path d="M80.2691 19.1094C80.6661 19.8011 81.0811 20.4567 81.4721 21.0762C81.926 21.1546 82.3929 21.1009 82.8173 20.9217C83.2417 20.7424 83.6057 20.4451 83.866 20.065C84.1264 19.6849 84.2721 19.2381 84.286 18.7776C84.2998 18.3172 84.1812 17.8624 83.9441 17.4674L83.3426 16.475C83.1171 16.0776 82.783 15.7527 82.3795 15.5383C81.9761 15.3238 81.5199 15.2287 81.0643 15.264C80.6088 15.2994 80.1727 15.4637 79.8071 15.7378C79.4416 16.0119 79.1616 16.3844 79 16.8118C79.409 17.5696 79.818 18.3395 80.2691 19.1094Z" fill="#455A64"/>
<path d="M83.4135 4.8125C83.0827 5.35383 82.776 5.90718 82.4752 6.46054C82.1745 7.01389 81.8737 7.57927 81.6151 8.14465C81.3565 8.71004 81.0618 9.28144 80.8091 9.85885L80.4242 10.725C80.3039 11.0197 80.1776 11.3264 80.0693 11.6031C80.2377 11.3325 80.3881 11.0558 80.5505 10.7851L81.0016 9.95509C81.3084 9.40174 81.6031 8.83635 81.8677 8.27097C82.1324 7.70558 82.4211 7.13418 82.6737 6.55677C82.9263 5.97935 83.185 5.40796 83.4135 4.8125Z" fill="#263238"/>
<path d="M86.4639 23.3557C87.1736 23.2835 87.8773 23.1873 88.5811 23.085C89.2848 22.9828 89.9825 22.8565 90.6862 22.7362C91.3899 22.6159 92.0816 22.4715 92.7793 22.3212L93.8199 22.0926L94.8604 21.834C94.4995 21.8641 94.1507 21.9122 93.7958 21.9543L92.7372 22.1046C92.0335 22.2069 91.3358 22.3272 90.6321 22.4535C89.9284 22.5798 89.2367 22.7121 88.539 22.8685C87.8412 23.0249 87.1495 23.1693 86.4639 23.3557Z" fill="#263238"/>
<path d="M97.9102 16.5156C96.8997 16.7983 95.9012 17.1171 94.9028 17.4238C93.9044 17.7306 92.9179 18.0734 91.9255 18.4103C90.9331 18.7471 89.9527 19.0899 88.9663 19.4508L87.4987 19.9981C87.0115 20.1906 86.5183 20.3711 86.0371 20.5695C86.5423 20.4312 87.0416 20.2748 87.5408 20.1305L89.0384 19.6613C90.0369 19.3486 91.0293 19.0117 92.0458 18.6809C93.0623 18.3501 94.0186 17.9952 94.999 17.6344C95.9794 17.2735 96.9358 16.9126 97.9102 16.5156Z" fill="#263238"/>
<path d="M88.9649 3C88.3213 3.84206 87.7078 4.70818 87.0943 5.5743C86.4808 6.44042 85.8913 7.31856 85.2899 8.1907C84.6884 9.06283 84.0869 9.95301 83.5396 10.8492L82.6855 12.1905C82.4088 12.6416 82.1261 13.0927 81.8555 13.5498C82.1803 13.1288 82.487 12.6957 82.7998 12.2687L83.72 10.9695C84.3215 10.1094 84.923 9.23125 85.5244 8.3531C86.1259 7.47495 86.7274 6.59079 87.2747 5.69459C87.8221 4.7984 88.4235 3.90822 88.9649 3Z" fill="#263238"/>
<path d="M84.2559 16.9318C85.3385 16.3303 86.4031 15.7288 87.4677 15.1274C88.5323 14.5259 89.5849 13.8944 90.6435 13.2748C91.7021 12.6553 92.7426 12.0178 93.7832 11.3742L95.341 10.3998C95.8583 10.069 96.3755 9.74421 96.8868 9.40137C96.3394 9.68406 95.8101 10.0028 95.2688 10.2795L93.6689 11.1817C92.6043 11.7832 91.5517 12.3847 90.4991 13.0343C89.4466 13.6838 88.394 14.2913 87.3534 14.9349C86.3129 15.5785 85.2784 16.2521 84.2559 16.9318Z" fill="#263238"/>
<path d="M40.1264 85.5244C37.3191 85.7219 34.534 86.1606 31.802 86.8357C31.7796 86.8357 31.7582 86.8445 31.7424 86.8603C31.7266 86.8761 31.7178 86.8975 31.7178 86.9199C31.7178 86.9422 31.7266 86.9636 31.7424 86.9794C31.7582 86.9952 31.7796 87.0041 31.802 87.0041C34.5868 86.6492 37.4077 86.3485 40.1624 85.8492C40.1838 85.8469 40.2044 85.8403 40.2232 85.83C40.242 85.8196 40.2586 85.8057 40.272 85.7889C40.2854 85.7722 40.2954 85.7529 40.3013 85.7323C40.3073 85.7117 40.3092 85.6901 40.3068 85.6688C40.3044 85.6475 40.2979 85.6268 40.2875 85.608C40.2772 85.5892 40.2632 85.5727 40.2465 85.5593C40.2297 85.5459 40.2105 85.5359 40.1899 85.5299C40.1693 85.5239 40.1477 85.5221 40.1264 85.5244Z" fill="#263238"/>
<path d="M42.4129 27.2502C42.4129 27.2502 37.5169 24.2067 32.0014 28.6155C25.4394 33.8483 26.3175 53.1315 25.8243 54.8217C25.3311 56.5118 24.5733 56.8787 24.2364 58.4004C23.8996 59.9221 25.1086 60.9928 25.2289 61.5461C25.3492 62.0995 23.665 64.8242 23.665 64.8242C23.665 64.8242 31.9714 67.5248 37.3185 66.7849C42.6655 66.0451 48.8246 62.7551 48.8246 62.7551C48.8246 62.7551 47.7179 60.9928 47.766 60.1868C47.8141 59.3808 48.8066 58.3824 48.8186 56.9028C48.8306 55.4231 46.7135 53.5345 46.533 52.7346C46.3526 51.9346 48.3374 37.4872 47.339 32.3507C46.3405 27.2141 42.4129 27.2502 42.4129 27.2502Z" fill="#263238"/>
<path d="M49.1145 62.3322C48.674 61.7627 48.3137 61.1353 48.0439 60.4677C47.9702 60.291 47.9473 60.0973 47.9778 59.9083C48.3026 58.7535 49.3912 57.7731 49.2589 56.51C49.0544 55.5296 48.1642 54.7056 47.5748 53.9056C47.1796 53.4811 46.9073 52.9572 46.7868 52.3899C46.7772 52.2036 46.7772 52.0169 46.7868 51.8305C47.3282 45.8158 48.1221 39.7289 47.4665 33.6961C47.3531 32.2734 46.9585 30.8873 46.3057 29.6182C47.041 30.856 47.5139 32.2318 47.6951 33.6601C48.5792 39.7049 47.8334 45.8339 47.2019 51.8666C47.2019 52.035 47.1718 52.2275 47.1718 52.3719C47.2863 52.8561 47.5223 53.3033 47.8575 53.671C48.4589 54.5251 49.3491 55.3852 49.5356 56.4679C49.6438 57.8212 48.5251 58.7715 48.098 59.9384C48.0655 60.103 48.0779 60.2734 48.1341 60.4316C48.3724 61.1026 48.6937 61.7411 49.0905 62.3322H49.1145Z" fill="#263238"/>
<path d="M23.2874 64.0169C23.6724 63.2951 24.2197 62.3929 24.5445 61.6591V61.629C24.4896 61.5124 24.4231 61.4016 24.346 61.2982C23.9979 60.8839 23.7348 60.4051 23.5717 59.8891C23.4086 59.3731 23.3488 58.83 23.3957 58.2909C23.5461 56.9977 24.5024 55.9571 24.9896 54.8384C25.2783 54.0707 25.4052 53.2516 25.3625 52.4325C25.573 45.3532 26.1384 33.3719 31.8584 28.512C32.5133 27.9711 33.2558 27.5459 34.0538 27.2549C33.2803 27.59 32.5655 28.0469 31.9366 28.6082C26.5233 33.6425 26.0843 45.3893 25.7655 52.4445C25.8064 53.3151 25.6545 54.1839 25.3204 54.9888C24.7731 56.1616 23.8588 57.0518 23.6543 58.333C23.547 59.1509 23.7232 59.9809 24.1535 60.6847C24.2979 60.9674 24.4844 61.22 24.6347 61.5027C24.6639 61.5473 24.6786 61.5998 24.6768 61.6531C24.2553 62.4691 23.7874 63.2604 23.2754 64.0229L23.2874 64.0169Z" fill="#263238"/>
<path d="M37.9916 56.7937C42.0515 66.6518 52.0841 83.1322 56.9199 79.2768C64.1376 73.5086 69.3223 60.4206 71.3552 55.1276C72.504 52.1564 58.0447 46.707 57.0282 49.4016C55.5786 53.227 52.5773 61.2145 51.3322 62.3213C50.6766 62.9227 45.919 55.7051 42.2139 52.2767C36.921 47.3085 36.6924 53.642 37.9916 56.7937Z" fill="#F7A9A0"/>
<path d="M74.6107 51.8372C73.4679 54.8445 68.7343 60.0773 67.1103 60.9014C65.4863 61.7254 56.2357 54.2852 56.3199 52.3905C56.4041 50.4959 61.1016 40.4152 63.9225 38.7491C66.7434 37.0831 75.7896 48.7276 74.6107 51.8372Z" fill="#F7A9A0"/>
<path d="M56.8902 50.291C56.8407 47.6946 56.4132 45.1193 55.6211 42.6462C54.5685 39.7351 52.6799 35.5308 54.2257 34.9053C57.4014 33.6242 62.105 44.1199 62.105 44.1199C62.105 44.1199 63.4342 49.082 60.4028 50.6278C59.8432 50.9013 59.2189 51.0146 58.5989 50.9551C57.979 50.8957 57.3876 50.6658 56.8902 50.291Z" fill="#F7A9A0"/>
<path d="M65.0952 47.7346L68.1507 45.9603L63.0081 37.1006L59.1406 39.3501L65.0952 47.7346Z" fill="#455A64"/>
<path d="M59.1406 39.3501L61.4082 42.5499L65.0952 47.7346L68.1507 45.9603L63.0141 37.1006L59.1406 39.3501Z" fill="#455A64"/>
<path opacity="0.1" d="M59.1406 39.3501L61.4082 42.5499L64.9689 40.4809L63.0141 37.1006L59.1406 39.3501Z" fill="black"/>
<path d="M59.5364 40.8739L64.3535 38.0781L62.231 34.4211L57.4139 37.2168L59.5364 40.8739Z" fill="#455A64"/>
<path d="M53.4144 37.7442L57.3721 35.9458L53.9377 30.0273L50.4131 32.5716L53.4144 37.7442Z" fill="#455A64"/>
<path d="M55.1826 27.7365L60.253 36.4759L66.9655 33.5828L84.6728 30.4852L72.499 9.50586L61.0229 23.3457L55.1826 27.7365Z" fill="#455A64"/>
<path d="M75.536 21.7615C78.9163 27.5838 83.1687 31.4211 85.0393 30.3385C86.9098 29.2558 85.6889 23.6501 82.3146 17.8279C78.9403 12.0056 74.6759 8.16823 72.8053 9.25689C70.9347 10.3456 72.1557 15.9393 75.536 21.7615Z" fill="#455A64"/>
<path opacity="0.2" d="M76.2219 21.1254C79.2292 26.292 82.8922 29.7625 84.4259 28.8723C85.9597 27.9822 84.7688 23.0742 81.7674 17.9015C78.7661 12.7288 75.0971 9.27036 73.5393 10.1545C71.9815 11.0387 73.2205 15.9587 76.2219 21.1254Z" fill="black"/>
<path d="M57.1491 38.9225L64.7998 35.446L58.1535 24L51.3389 28.92L57.1491 38.9225Z" fill="#455A64"/>
<path opacity="0.2" d="M57.1491 38.9225L64.7998 35.446L58.1535 24L51.3389 28.92L57.1491 38.9225Z" fill="black"/>
<path opacity="0.2" d="M72.3358 11.5146C72.2045 12.4216 72.2392 13.3448 72.4381 14.2393C72.6135 15.1373 72.8588 16.0201 73.1719 16.8798C73.3223 17.3128 73.5027 17.7339 73.6711 18.1549C73.8395 18.5759 74.044 18.9909 74.2726 19.4C74.5011 19.809 74.6756 20.224 74.8741 20.6029C75.0725 20.9818 75.3071 21.4089 75.5417 21.8058C76.4522 23.3933 77.5073 24.8933 78.6934 26.2868C79.2929 26.9796 79.951 27.6195 80.6602 28.1995C81.3639 28.7885 82.1836 29.223 83.0661 29.4746C82.2072 29.1768 81.4175 28.7083 80.7444 28.0972C80.0563 27.5074 79.4222 26.8572 78.8498 26.1545C77.6955 24.7515 76.6632 23.2524 75.7642 21.6735C74.8261 20.1183 74.0212 18.4865 73.3583 16.7956C73.0246 15.953 72.7552 15.0865 72.5524 14.2032C72.329 13.3257 72.2558 12.4166 72.3358 11.5146Z" fill="black"/>
<path d="M60.0964 42.1829C60.4031 43.855 62.2015 42.5378 62.2015 42.5378C62.2015 42.5378 60.0723 45.0579 61.0527 46.6639C62.0331 48.2698 64.1202 46.5376 64.2766 46.4173C64.1623 46.5556 62.2677 48.9254 63.4225 50.4351C64.5773 51.9448 66.4299 49.9599 66.5802 49.8336C66.5141 49.99 65.684 52.1252 66.8208 53.0695C68.7816 54.6995 71.0311 49.3043 72.9859 48.6126C72.9859 48.6126 74.5437 51.7644 74.6099 51.8425C74.6761 51.9207 76.8714 46.7601 75.7828 44.1978C75.6318 43.8223 75.3565 43.5099 75.0029 43.3128C74.6493 43.1158 74.2388 43.046 73.84 43.1152C73.84 43.1152 74.7542 41.5514 73.8821 40.3364C73.431 39.7349 72.0356 39.8793 72.0356 39.8793C72.222 39.5148 72.3049 39.1062 72.2752 38.6979C72.2456 38.2896 72.1044 37.8972 71.8672 37.5636C71.1995 36.7336 69.9004 37.0283 69.9004 37.0283C69.9004 37.0283 69.9786 35.5005 69.0222 34.875C67.0915 33.6119 59.4408 38.5981 60.0964 42.1829Z" fill="#F7A9A0"/>
<path d="M69.6898 37.0419C69.6898 37.0419 69.6898 36.9817 69.6898 36.9938C66.6546 38.0525 64.012 40.0072 62.1112 42.5995C62.0571 42.6837 62.1654 42.816 62.2496 42.7318C64.4412 40.4851 66.9474 38.5685 69.6898 37.0419Z" fill="#263238"/>
<path d="M72.0595 39.8314C72.0956 39.8314 72.0595 39.7593 72.0595 39.7773C68.7247 40.9693 65.9273 43.3165 64.1742 46.3935C64.1201 46.5078 64.1742 46.6642 64.2524 46.5379C65.5095 44.5109 69.4611 41.2269 72.0595 39.8314Z" fill="#263238"/>
<path d="M66.5384 50.1051C68.2766 47.0977 70.8028 44.9805 73.7139 43.1641C73.75 43.1641 73.7139 43.0859 73.6778 43.0979C72.0118 43.5972 70.2795 44.9505 69.0164 46.1053C67.8289 47.1686 66.9377 48.5219 66.4301 50.0329C66.412 50.1051 66.5023 50.1532 66.5384 50.1051Z" fill="#263238"/>
<path d="M62.1409 42.5381C62.0747 42.6403 62.2973 42.6283 62.2311 42.7306C61.9484 43.1636 60.4928 45.9123 61.2748 46.7003C61.8762 47.3017 63.1874 46.9228 63.6145 46.574L64.6971 45.6958L63.9874 46.8988C63.6651 47.428 63.4333 48.0074 63.3017 48.613C63.2228 48.8903 63.204 49.1814 63.2465 49.4666C63.289 49.7518 63.3919 50.0247 63.5483 50.267C63.6943 50.4904 63.9124 50.6571 64.1663 50.7392C64.4202 50.8213 64.6946 50.8138 64.9437 50.7181C65.4989 50.4883 65.9871 50.1221 66.3632 49.6535L67.4338 48.4024L66.8324 49.9302C66.6654 50.3576 66.5522 50.8041 66.4955 51.2594C66.4263 51.6879 66.4849 52.1272 66.664 52.5225C66.7488 52.7015 66.8825 52.8528 67.0495 52.9592C67.2165 53.0656 67.4102 53.1227 67.6083 53.124C68.0539 53.0582 68.4713 52.8662 68.8112 52.5706C69.537 51.9471 70.2146 51.2695 70.8382 50.5437C71.163 50.1828 71.4938 49.8219 71.8366 49.4791C72.1723 49.1136 72.5826 48.8244 73.0396 48.631C72.622 48.8719 72.2562 49.1928 71.9629 49.5753C71.6502 49.9362 71.3614 50.3151 71.0547 50.7001C70.471 51.4859 69.8145 52.2149 69.0939 52.8774C68.7109 53.2458 68.2275 53.4927 67.7045 53.5871C67.4146 53.608 67.1249 53.544 66.8707 53.403C66.6165 53.2621 66.4088 53.0502 66.273 52.7932C66.0351 52.3087 65.9471 51.7642 66.0204 51.2294C66.075 50.7211 66.1943 50.2218 66.3752 49.7437L66.8504 50.0204C66.4173 50.581 65.8449 51.0186 65.1903 51.2895C64.8189 51.4221 64.413 51.4221 64.0415 51.2895C63.6826 51.1526 63.3727 50.9118 63.1513 50.5978C62.9528 50.2915 62.8221 49.9462 62.7682 49.5851C62.7142 49.2241 62.7382 48.8557 62.8386 48.5047C62.9943 47.8404 63.2585 47.2064 63.6205 46.6281L63.9934 46.9529C63.434 47.3799 62.0507 47.9874 60.95 47.1394C59.6327 45.8101 61.7198 43.0193 62.1409 42.5381Z" fill="#263238"/>
<path d="M62.2017 42.5379C61.8843 42.6878 61.5454 42.7873 61.1973 42.8327C61.058 42.8542 60.9155 42.8382 60.7844 42.7864C60.6533 42.7346 60.5384 42.6488 60.4515 42.5379C60.2949 42.2705 60.2196 41.9633 60.2349 41.6538C60.2349 41.3109 60.2349 40.9501 60.283 40.5771C60.0716 40.8924 59.9301 41.2492 59.868 41.6237C59.8196 41.8273 59.8121 42.0386 59.8462 42.2452C59.8803 42.4517 59.9552 42.6494 60.0665 42.8266C60.2089 43.0095 60.4042 43.144 60.6259 43.2116C60.8362 43.2719 61.0592 43.2719 61.2695 43.2116C61.6442 43.0924 61.9709 42.8563 62.2017 42.5379Z" fill="#263238"/>
<path d="M55.8078 49.5029L69.8282 60.1791C69.8282 60.1791 69.1665 61.4482 68.2703 63.4451C68.0358 63.9744 68.6433 66.9697 67.9997 68.1606C64.7277 74.2776 58.7851 81.1584 54.9718 81.0081C48.8909 80.7675 40.5725 65.2254 37.7336 58.531C34.8946 51.8366 36.8855 46.3031 42.8341 52.5163C48.7826 58.7295 50.8938 61.2617 51.0983 61.1835C51.3028 61.1053 51.6096 58.2784 52.6501 55.253C52.9027 54.5132 54.3162 53.3283 54.5568 52.6426C54.7553 52.0772 55.8078 49.5029 55.8078 49.5029Z" fill="#FFC727"/>
<path d="M51.2486 60.7809C50.5679 62.4602 49.9973 64.1821 49.5404 65.9356C49.2998 66.7957 49.1013 67.6738 48.9389 68.552C48.7376 69.4178 48.5929 70.2958 48.5059 71.1804C48.5059 71.2165 48.554 71.2165 48.566 71.1804C48.8607 70.3383 49.0893 69.4602 49.3118 68.6001C49.5344 67.74 49.781 66.8678 50.0035 66.0017C50.4486 64.2635 50.9659 62.5433 51.3629 60.793C51.3636 60.7855 51.3629 60.7779 51.3608 60.7706C51.3587 60.7634 51.3551 60.7567 51.3504 60.7508C51.3456 60.7449 51.3398 60.7401 51.3331 60.7365C51.3265 60.7329 51.3192 60.7306 51.3117 60.7298C51.3042 60.729 51.2966 60.7297 51.2894 60.7319C51.2822 60.734 51.2754 60.7375 51.2696 60.7423C51.2637 60.747 51.2588 60.7529 51.2552 60.7595C51.2516 60.7662 51.2494 60.7734 51.2486 60.7809Z" fill="#263238"/>
<path d="M55.6509 53.9364C56.3666 54.4116 57.0403 54.9529 57.7199 55.4702C58.3996 55.9874 59.0793 56.5167 59.7469 57.052C61.0902 58.1146 62.4214 59.1933 63.7407 60.288C64.1016 60.5887 64.4624 60.8894 64.8173 61.1902C65.1722 61.4909 65.5391 61.8939 65.918 62.2187L65.8819 62.2608C65.5451 62.0082 65.1782 61.7977 64.8353 61.545C64.4925 61.2924 64.1376 61.0218 63.7948 60.7511L61.7799 59.1632C60.4386 58.0926 59.1033 57.022 57.7981 55.9092C57.0583 55.3078 56.2944 54.6702 55.5967 54.0026C55.588 53.9954 55.5824 53.985 55.5813 53.9737C55.5801 53.9625 55.5835 53.9512 55.5907 53.9424C55.5979 53.9337 55.6083 53.9281 55.6195 53.927C55.6308 53.9258 55.6421 53.9292 55.6509 53.9364Z" fill="#263238"/>
<path opacity="0.1" d="M62.671 75.8301C60.0065 78.8675 57.1435 81.0629 54.9662 80.9787C48.8913 80.7381 40.573 65.1961 37.734 58.5017C36.098 54.6462 36.0679 51.1757 37.4694 50.0811L62.671 75.8301Z" fill="black"/>
<path d="M43.5496 82.9215L43.6661 95L7 86.3893L11.954 78.4517C16.105 69.841 21.5577 56.6901 27.768 50.8661C32.7026 46.232 37.5465 47.6332 40.1368 52.1029C40.7844 53.2302 46.8004 68.7999 46.9947 74.757C47.1566 80.0017 43.5496 82.9215 43.5496 82.9215Z" fill="#FFC727"/>
<path d="M35.3402 71.6012C36.6416 71.9145 37.9089 72.3558 39.1235 72.9184C39.7249 73.2131 40.3264 73.5199 40.9279 73.8928C41.2226 74.0672 41.5293 74.2236 41.818 74.386C42.1182 74.5614 42.4455 74.6854 42.7864 74.7529C42.7864 74.7529 42.7864 74.8251 42.7864 74.8191C42.4622 74.8054 42.14 74.7611 41.8241 74.6867C41.5171 74.6009 41.2191 74.4861 40.9339 74.3439C40.3324 74.0552 39.7309 73.7424 39.0934 73.4297C37.8543 72.8282 36.6093 72.2267 35.3342 71.7455C35.25 71.7576 35.28 71.5892 35.3402 71.6012Z" fill="#263238"/>
<path d="M31.9411 72.8222C33.0302 72.7868 34.1204 72.8391 35.2011 72.9786C35.7423 73.0498 36.2787 73.1542 36.807 73.2914C37.0597 73.3576 37.3123 73.4237 37.5649 73.5019C37.8175 73.5801 38.1062 73.7124 38.3829 73.7906C38.3829 73.7906 38.3829 73.8628 38.3829 73.8508C38.1183 73.7906 37.8416 73.7906 37.5769 73.7545L36.771 73.6342C36.2357 73.55 35.6943 73.4839 35.159 73.3936C34.0884 73.2252 33.0178 73.0628 31.9351 72.9425C31.869 72.9606 31.887 72.8222 31.9411 72.8222Z" fill="#263238"/>
<path d="M35.3271 50.4946C35.4234 51.0961 37.9075 55.0658 40.572 55.144C41.4381 55.144 41.7749 50.4345 41.7749 50.4345L41.8832 50.0917L43.3448 45.2799L37.8834 41.1598L37.0895 40.6064C37.0895 40.6064 36.7707 41.9477 36.3978 43.6138C36.3978 43.692 36.3617 43.7642 36.3436 43.8484C36.3256 43.9326 36.2955 44.0348 36.2775 44.119C36.2173 44.3717 36.1632 44.6243 36.1091 44.8829C36.0549 45.1415 36.0249 45.2618 35.9888 45.4844C35.9527 45.7069 35.9106 45.8874 35.8685 46.0859C35.5892 47.5416 35.4084 49.0146 35.3271 50.4946Z" fill="#F7A9A0"/>
<path d="M36.4033 43.6275C36.792 45.041 37.4841 46.3528 38.4314 47.4715C39.3788 48.5903 40.5586 49.4891 41.8888 50.1053L43.3503 45.2936L37.889 41.1735L37.095 40.6201C37.095 40.6201 36.7762 41.9494 36.4033 43.6275Z" fill="#263238"/>
<path d="M48.7892 34.8162C52.4883 42.8338 48.1035 45.9494 46.3833 46.7494C44.8135 47.4711 39.3762 49.7567 34.8712 42.1361C30.3661 34.5154 32.9224 30.2991 36.429 28.4586C39.9356 26.6181 45.0962 26.8046 48.7892 34.8162Z" fill="#F7A9A0"/>
<path d="M47.2247 34.6948C47.0263 34.7386 46.8255 34.7707 46.6233 34.791C46.4184 34.8602 46.1965 34.8602 45.9917 34.791C45.932 34.7561 45.8859 34.7021 45.8608 34.6376C45.8357 34.5732 45.8331 34.5022 45.8534 34.4361C45.9131 34.3103 46.0054 34.2027 46.1206 34.1244C46.2359 34.0462 46.37 34.0001 46.509 33.9911C46.786 33.9322 47.0749 33.9771 47.321 34.1174C47.3689 34.1538 47.406 34.2027 47.4282 34.2587C47.4505 34.3147 47.457 34.3757 47.4471 34.4351C47.4372 34.4945 47.4112 34.5501 47.3721 34.5959C47.3329 34.6417 47.2819 34.6758 47.2247 34.6948Z" fill="#263238"/>
<path d="M41.6613 36.5834C41.8383 36.4837 42.009 36.3732 42.1725 36.2526C42.3706 36.1635 42.5335 36.0112 42.6356 35.8195C42.6549 35.7534 42.6517 35.6828 42.6267 35.6186C42.6017 35.5544 42.5562 35.5003 42.4973 35.4647C42.3704 35.4088 42.2307 35.3882 42.0931 35.4052C41.9555 35.4221 41.825 35.4759 41.7154 35.5609C41.469 35.704 41.2815 35.93 41.1861 36.1984C41.1703 36.2608 41.1727 36.3264 41.193 36.3874C41.2133 36.4484 41.2506 36.5024 41.3006 36.5429C41.3505 36.5833 41.4111 36.6087 41.475 36.6159C41.5389 36.623 41.6035 36.6118 41.6613 36.5834Z" fill="#263238"/>
<path d="M45.1562 42.4901C45.327 42.6239 45.5411 42.6903 45.7577 42.6765C45.9802 42.6121 46.1856 42.4992 46.3591 42.3457C46.3591 42.3457 46.3952 42.3457 46.3591 42.3457C46.315 42.4806 46.2362 42.6016 46.1306 42.6966C46.0251 42.7916 45.8965 42.8573 45.7577 42.887C45.6321 42.8897 45.5084 42.8559 45.4017 42.7897C45.2949 42.7235 45.2097 42.6278 45.1562 42.5141C45.1562 42.5141 45.1321 42.478 45.1562 42.4901Z" fill="#263238"/>
<path d="M46.7438 39.5788C46.7438 39.5788 47.1768 40.3727 47.3452 40.7817C47.3452 40.8178 47.267 40.872 47.1347 40.9321C46.8193 41.1238 46.4573 41.2252 46.0882 41.2252C45.719 41.2252 45.357 41.1238 45.0416 40.9321C45.0365 40.9297 45.0318 40.9264 45.028 40.9222C45.0242 40.9181 45.0212 40.9132 45.0192 40.9079C45.0153 40.8972 45.0158 40.8853 45.0205 40.875C45.0253 40.8646 45.034 40.8566 45.0447 40.8526C45.0555 40.8487 45.0673 40.8491 45.0777 40.8539C45.7129 41.01 46.3815 40.9573 46.9844 40.7035C46.9844 40.5833 46.2024 39.3623 46.2626 39.3322C46.5806 39.2479 46.9079 39.2035 47.237 39.1999C46.3889 37.5157 45.2762 35.976 44.4521 34.2858C44.4521 34.2257 44.5123 34.1716 44.5484 34.2197C45.7934 35.8295 46.8734 37.5605 47.7723 39.3863C47.8565 39.5788 46.9302 39.5848 46.7438 39.5788Z" fill="#263238"/>
<path d="M47.027 40.7881C46.9216 41.1959 46.7147 41.5704 46.4255 41.8768C46.2631 42.0409 46.0522 42.1484 45.824 42.1835C45.3308 42.2617 45.1444 41.8647 45.0722 41.4798C45.033 41.2819 45.0189 41.0798 45.0301 40.8783C45.6883 41.0623 46.3881 41.0306 47.027 40.7881Z" fill="#263238"/>
<path d="M46.4373 41.877C46.2749 42.0411 46.064 42.1486 45.8358 42.1837C45.3426 42.2619 45.1562 41.8649 45.084 41.48C45.321 41.3819 45.5844 41.3678 45.8306 41.44C46.0767 41.5122 46.2908 41.6664 46.4373 41.877Z" fill="#FF9ABB"/>
<path d="M42.5645 38.2921C42.5586 38.3591 42.5402 38.4243 42.5104 38.4846C42.4906 38.5336 42.4605 38.5778 42.4221 38.6142C42.3837 38.6505 42.3379 38.6781 42.2878 38.6951C41.975 38.7973 41.6863 38.5507 41.542 38.25C41.7405 38.3522 41.963 38.4425 42.1435 38.3342C42.2454 38.2414 42.3168 38.1197 42.348 37.9854C42.4095 38.0947 42.4821 38.1975 42.5645 38.2921Z" fill="#263238"/>
<path d="M42.3717 38.2789C42.3318 38.1311 42.3318 37.9755 42.3717 37.8278C42.3928 37.7456 42.431 37.6688 42.4839 37.6025C42.5367 37.5361 42.6031 37.4817 42.6784 37.4428C42.7555 37.4028 42.8412 37.3818 42.928 37.3818C43.0149 37.3818 43.1006 37.4028 43.1777 37.4428C43.3131 37.511 43.4289 37.6124 43.5145 37.7375C43.5662 37.8102 43.6124 37.8866 43.6528 37.9661C43.7446 38.1298 43.7942 38.3138 43.7972 38.5014C43.7423 38.3778 43.6737 38.2608 43.5927 38.1526C43.5226 38.0538 43.4441 37.9612 43.3581 37.8759C43.1777 37.6954 42.9611 37.5872 42.7987 37.6834C42.6363 37.7797 42.5642 37.9842 42.6063 38.2368C42.6521 38.4923 42.7247 38.7423 42.8228 38.9826C42.6176 38.788 42.4628 38.5465 42.3717 38.2789Z" fill="#263238"/>
<path d="M47.5501 35.9941C47.6041 36.0326 47.6656 36.0593 47.7306 36.0723C47.782 36.088 47.8364 36.0919 47.8895 36.0836C47.9426 36.0752 47.9932 36.0549 48.0373 36.0242C48.314 35.8437 48.2779 35.4768 48.1456 35.1641C48.1456 35.1641 48.1155 35.1641 48.1095 35.1641C48.0674 35.3806 48.0073 35.6091 47.8268 35.6693C47.6901 35.6928 47.5495 35.6739 47.4238 35.6152C47.479 35.7367 47.5213 35.8637 47.5501 35.9941Z" fill="#263238"/>
<path d="M47.6777 35.8438C47.5932 35.714 47.4746 35.6099 47.3348 35.5431C47.2573 35.5083 47.1732 35.4902 47.0882 35.4902C47.0032 35.4902 46.9192 35.5083 46.8416 35.5431C46.7631 35.5808 46.6945 35.6364 46.6412 35.7053C46.588 35.7742 46.5516 35.8546 46.5349 35.9401C46.5112 36.0888 46.5215 36.241 46.5649 36.3852C46.5907 36.4717 46.6228 36.5561 46.6612 36.6378C46.736 36.8094 46.8516 36.9601 46.998 37.0769C46.9341 36.9585 46.8837 36.8335 46.8476 36.704C46.813 36.5857 46.7869 36.4651 46.7694 36.3431C46.7394 36.0965 46.7694 35.8559 46.9619 35.7897C47.1544 35.7236 47.3408 35.7897 47.5153 35.9702C47.6867 36.1662 47.8397 36.3776 47.9724 36.6017C47.9357 36.3293 47.8346 36.0695 47.6777 35.8438Z" fill="#263238"/>
<path d="M35.0466 42.5858C35.5185 42.1645 35.8713 41.6266 36.0698 41.0259C36.2683 40.4253 36.3054 39.783 36.1773 39.1635C37.4717 38.0778 38.4554 36.6687 39.0283 35.0795C39.0283 35.2719 38.9802 36.6553 38.9321 37.359C44.0326 34.7787 44.4957 30.1714 44.4957 30.1714C45.8037 30.818 46.9489 31.7514 47.8459 32.9021C47.2334 31.0768 46.1104 29.4653 44.61 28.2588C43.8291 27.647 42.9172 27.2244 41.9457 27.024C40.9742 26.8236 39.9694 26.851 39.0103 27.1039C37.5851 27.1698 36.204 27.6184 35.0122 28.4027C33.8204 29.187 32.862 30.278 32.2377 31.5608C29.8318 36.3967 35.0466 42.5858 35.0466 42.5858Z" fill="#263238"/>
<path d="M42.7512 35.2716C42.0237 35.9926 41.1925 36.6008 40.2852 37.076C41.6827 36.2217 42.8122 34.9921 43.5451 33.5273C43.8545 32.9048 44.0849 32.2461 44.2308 31.5665C44.4206 30.8261 44.4615 30.0553 44.3511 29.2989C44.3511 29.2878 44.3555 29.2771 44.3634 29.2692C44.3713 29.2613 44.382 29.2568 44.3932 29.2568C44.4044 29.2568 44.4151 29.2613 44.423 29.2692C44.4309 29.2771 44.4353 29.2878 44.4353 29.2989C44.6252 30.0327 44.6903 30.7931 44.6278 31.5484C44.5336 32.2957 44.3032 33.0194 43.9481 33.6837C43.6273 34.2728 43.222 34.8118 42.7452 35.2836" fill="#263238"/>
<path d="M36.4219 42.1657C36.4219 42.1657 33.6732 40.223 32.7349 41.2936C31.7966 42.3642 34.5033 45.6302 36.0671 45.6483C36.2679 45.6647 36.4699 45.6402 36.661 45.5764C36.8521 45.5125 37.0282 45.4107 37.1789 45.2769C37.3295 45.1431 37.4515 44.9802 37.5375 44.798C37.6234 44.6158 37.6716 44.4181 37.679 44.2168L36.4219 42.1657Z" fill="#F7A9A0"/>
<path d="M33.5342 42.2137V42.2498C34.0581 42.3124 34.5631 42.4838 35.0168 42.7531C35.4705 43.0225 35.8628 43.3837 36.1686 43.8136C36.0775 43.7364 35.9706 43.68 35.8555 43.6481C35.7404 43.6163 35.6197 43.6099 35.5018 43.6294C35.384 43.6488 35.2717 43.6937 35.1729 43.7608C35.0741 43.8279 34.9911 43.9157 34.9296 44.0181C34.9296 44.0181 34.9296 44.0723 34.9777 44.0602C35.1279 43.9442 35.3106 43.8778 35.5003 43.8702C35.69 43.8627 35.8773 43.9144 36.0363 44.0181C36.3006 44.1933 36.5465 44.3948 36.7701 44.6196C36.8423 44.6858 36.9806 44.5835 36.9145 44.4993C36.4874 43.2422 34.9055 41.8589 33.5342 42.2137Z" fill="#263238"/>
<path d="M34.7294 49.6434C32.9278 41.8488 30.723 34.1542 28.1238 26.5909C26.4879 21.6637 24.3514 15.6878 23.6031 13.611C22.6175 10.8229 10.1856 18.3772 11.0423 20.21C11.6151 21.4041 13.5142 25.2722 16.9821 31.5701C20.93 38.7454 24.2947 44.7318 29.2282 51.9954C32.9541 57.4314 35.9318 54.7887 34.7294 49.6434Z" fill="#F7A9A0"/>
<path d="M12.8602 23C10.468 21.473 3.71529 14.347 2.69583 12.6164C1.67636 10.8858 -0.887433 5.79064 0.313716 4.86935C1.51486 3.94805 2.40311 5.37835 2.40311 5.37835C2.40311 5.37835 1.55019 2.83334 2.96331 2.22763C4.0938 1.74407 5.42617 3.70373 5.42617 3.70373C5.42617 3.70373 4.63382 0.863501 6.11254 0.446119C7.4651 0.0694575 8.37352 2.5483 8.37352 2.5483C8.37352 2.5483 7.94959 0.0999963 9.31729 0.00328587C10.9626 -0.134145 11.6994 4.0753 12.9662 5.89244C13.2538 6.30473 22 14.3368 22 14.3368L12.8602 23Z" fill="#F7A9A0"/>
<path d="M8.17421 2.10471C9.15156 5.2826 9.65436 6.57037 11.9819 8.91224C12.0271 8.95897 11.9819 9.03167 11.9085 8.98494C9.40578 6.88192 8.6883 5.39164 8.00472 2.12548C7.97082 1.96451 8.12901 1.95932 8.17421 2.10471Z" fill="#263238"/>
<path d="M5.11336 4.09009C6.00142 7.17404 6.9105 8.44709 8.99141 10.9389C9.02294 10.9735 8.95988 11.0228 8.92835 10.9883C6.66879 8.70861 5.46018 7.28259 5.00301 4.08022C4.98199 3.97167 5.07658 3.97167 5.11336 4.09009Z" fill="#263238"/>
<path d="M2.11577 5.14113C3.33972 8.57025 4.32716 10.3455 6.9761 12.8783C6.99022 12.8906 6.99877 12.9078 6.99988 12.9263C7.00099 12.9447 6.99456 12.9628 6.98201 12.9766C6.96947 12.9904 6.95183 12.9988 6.93298 12.9999C6.91413 13.001 6.89561 12.9947 6.8815 12.9824C3.92509 10.6694 2.67748 8.4488 2.01525 5.18738C1.96795 4.96764 2.0389 4.92717 2.11577 5.14113Z" fill="#263238"/>
<path d="M24 15.7333C24 15.7333 23.7568 11.1126 19.8919 8.6679C18.3058 7.67737 16.9629 2.21363 15.3873 2.00815C13.6162 1.77632 13.9704 6.54458 15.6041 9.38445C15.6041 9.38445 11.9031 13.3044 13.3254 16.1232C13.6373 16.7344 16.3443 19.0053 17.1321 19L24 15.7333Z" fill="#F7A9A0"/>
<path d="M15.852 10.3281C14.2573 11.7176 12.8423 14.0151 13.3252 15.9404C13.3274 15.9459 13.3284 15.9518 13.328 15.9577C13.3277 15.9635 13.326 15.9693 13.3232 15.9746C13.3203 15.9799 13.3163 15.9846 13.3113 15.9885C13.3064 15.9925 13.3006 15.9955 13.2943 15.9975C13.2881 15.9994 13.2814 16.0002 13.2748 15.9999C13.2682 15.9996 13.2617 15.9982 13.2557 15.9956C13.2497 15.9931 13.2443 15.9895 13.2399 15.9852C13.2354 15.9808 13.232 15.9757 13.2298 15.9702C12.3931 13.9853 13.999 11.2958 15.5095 10.1296C15.7734 9.90635 16.2395 9.97086 15.852 10.3281Z" fill="#263238"/>
<path d="M28.9466 54.0446C28.8504 53.8341 28.7482 53.6296 28.6519 53.4432C29.3296 54.3173 30.0453 55.1614 30.7992 55.9754C30.7992 55.9754 30.8413 55.9754 30.8293 55.9754C30.1195 54.9348 29.3977 53.9123 28.6339 52.9139C28.273 52.4387 27.9301 51.9575 27.5512 51.5004C27.1723 51.0433 26.6791 50.4839 26.2881 49.9426C26.24 49.8764 26.1378 49.9426 26.1799 50.0027C26.5648 50.52 26.8896 51.0673 27.2445 51.5966C27.5993 52.1259 27.8941 52.4989 28.2309 52.9379C28.291 53.0943 28.3512 53.2567 28.4234 53.4071C28.5437 53.6597 28.67 53.9063 28.8083 54.1469C29.085 54.6281 29.3737 55.1032 29.6624 55.5784C29.4098 55.0431 29.1692 54.5439 28.9466 54.0446Z" fill="#263238"/>
<path d="M12 24.201L25.3326 17L26.1356 19.3935C26.9624 20.3775 27.6374 21.4805 28.1381 22.6657C28.8948 24.5267 35 48.12 35 51.3199C35 54.5198 33.1983 57.1045 29.3375 52.514C25.4767 47.9236 14.2187 29.8254 13.8995 29.1637C13.4861 28.2415 13.2821 27.2386 13.3024 26.2274L12 24.201Z" fill="#FFC727"/>
<path d="M15.0067 25.9514C15.6221 25.5768 16.2734 25.251 16.9094 24.9154C17.5454 24.5798 18.1865 24.2442 18.8327 23.9183C20.1251 23.2665 21.397 22.6245 22.7202 21.9971C23.0741 21.8268 23.4331 21.6518 23.7921 21.4864C24.1512 21.321 24.5871 21.18 24.9666 21C24.9974 21 25.023 21.0292 24.9666 21.0438C24.6538 21.2091 24.3614 21.4134 24.0537 21.5885L23.0793 22.1041L21.1457 23.0768C19.8584 23.7286 18.5814 24.3706 17.253 24.9835C16.5145 25.3288 15.776 25.6984 15.0169 26C15.0128 25.9975 15.0092 25.9943 15.0064 25.9905C15.0036 25.9867 15.0017 25.9823 15.0007 25.9778C14.9997 25.9732 14.9998 25.9685 15.0008 25.964C15.0018 25.9594 15.0038 25.9551 15.0067 25.9514Z" fill="#263238"/>
</svg>
