<svg xmlns="http://www.w3.org/2000/svg" xmlns:android="http://schemas.android.com/apk/res/android" width="19dp" height="19dp" viewportWidth="19" viewportHeight="19">
	<group>
		<clip-path d="M0,0H18.279V18.311H0V0Z" fill-rule="evenOdd"/>
		<path d="M0,9.156C0,4.099 4.092,0 9.139,0C14.187,0 18.279,4.099 18.279,9.156C18.279,14.212 14.187,18.311 9.139,18.311C4.092,18.311 0,14.212 0,9.156Z" fill="#FFD715" fill-rule="evenOdd"/>
	</group>
	<path d="M1.383,9.156C1.383,4.865 4.855,1.386 9.139,1.386C13.423,1.386 16.896,4.865 16.896,9.156C16.896,13.448 13.423,16.927 9.139,16.927C4.855,16.927 1.383,13.448 1.383,9.156Z" fill="#FFCC01" fill-rule="evenOdd"/>
	<path d="M13.197,2.523C13.969,3.732 14.417,5.168 14.417,6.709C14.417,11 10.945,14.479 6.661,14.479C5.173,14.479 3.783,14.059 2.603,13.332C3.981,15.488 6.393,16.917 9.139,16.917C13.423,16.917 16.895,13.438 16.895,9.146C16.895,6.345 15.416,3.891 13.197,2.523Z" fill="#FCBD11" fill-rule="evenOdd"/>
	<path d="M2.742,9.866C2.742,6.078 5.807,3.007 9.589,3.007C11.8,3.007 13.765,4.057 15.017,5.685C13.834,3.629 11.618,2.245 9.079,2.245C5.298,2.245 2.232,5.315 2.232,9.104C2.232,10.677 2.762,12.127 3.652,13.285C3.073,12.279 2.742,11.111 2.742,9.866Z" fill="#FFDB53" fill-rule="evenOdd"/>
</svg>
