<svg width="76" height="71" viewBox="0 0 76 71" fill="none" xmlns="http://www.w3.org/2000/svg">
<ellipse cx="37.6615" cy="35.3077" rx="37.6615" ry="35.3077" fill="#F67952"/>
<g clip-path="url(#clip0_3680_2909)">
<path d="M37.4997 14.083C48.7758 14.083 57.9164 23.2235 57.9164 34.4997C57.9164 45.7758 48.7758 54.9163 37.4997 54.9163C33.7801 54.9221 30.1304 53.9066 26.9484 51.9804L20.758 53.8016C20.4026 53.9062 20.0256 53.913 19.6666 53.8215C19.3076 53.73 18.9799 53.5434 18.7179 53.2815C18.4559 53.0195 18.2694 52.6918 18.1779 52.3328C18.0863 51.9738 18.0932 51.5968 18.1978 51.2413L20.0189 45.051C18.0938 41.8686 17.0783 38.2191 17.083 34.4997C17.083 23.2235 26.2236 14.083 37.4997 14.083ZM37.4997 18.1663C34.5753 18.1658 31.7043 18.9505 29.1867 20.4383C26.6691 21.9262 24.5971 24.0628 23.1871 26.6248C21.7772 29.1869 21.0809 32.0806 21.1712 35.0036C21.2614 37.9266 22.1348 40.7718 23.7001 43.2421C24.1635 43.971 24.3228 44.8897 24.0614 45.7738L23.1611 48.8383L26.2256 47.9379C27.1096 47.6766 28.0284 47.8358 28.7573 48.2993C30.8976 49.6545 33.3238 50.4933 35.8442 50.7494C38.3645 51.0054 40.9099 50.6717 43.279 49.7746C45.6482 48.8775 47.7762 47.4416 49.4948 45.5804C51.2135 43.7192 52.4756 41.4837 53.1815 39.0508C53.8874 36.6178 54.0176 34.0539 53.562 31.5619C53.1063 29.0699 52.0773 26.7181 50.5561 24.6923C49.035 22.6665 47.0635 21.0223 44.7975 19.8897C42.5314 18.7571 40.033 18.1671 37.4997 18.1663ZM30.3539 31.4372C31.1661 31.4372 31.945 31.7598 32.5194 32.3342C33.0937 32.9085 33.4164 33.6874 33.4164 34.4997C33.4164 35.3119 33.0937 36.0909 32.5194 36.6652C31.945 37.2395 31.1661 37.5622 30.3539 37.5622C29.5416 37.5622 28.7627 37.2395 28.1883 36.6652C27.614 36.0909 27.2914 35.3119 27.2914 34.4997C27.2914 33.6874 27.614 32.9085 28.1883 32.3342C28.7627 31.7598 29.5416 31.4372 30.3539 31.4372ZM44.6455 31.4372C45.4577 31.4372 46.2367 31.7598 46.811 32.3342C47.3854 32.9085 47.708 33.6874 47.708 34.4997C47.708 35.3119 47.3854 36.0909 46.811 36.6652C46.2367 37.2395 45.4577 37.5622 44.6455 37.5622C43.8333 37.5622 43.0543 37.2395 42.48 36.6652C41.9057 36.0909 41.583 35.3119 41.583 34.4997C41.583 33.6874 41.9057 32.9085 42.48 32.3342C43.0543 31.7598 43.8333 31.4372 44.6455 31.4372Z" fill="white"/>
</g>
<defs>
<clipPath id="clip0_3680_2909">
<rect width="49" height="49" fill="white" transform="translate(13 10)"/>
</clipPath>
</defs>
</svg>
