<svg width="18" height="19" viewBox="0 0 18 19" fill="none" xmlns="http://www.w3.org/2000/svg">
<path d="M7.10526 3.0875V3.325H10.8947V3.0875C10.8947 2.58359 10.6951 2.10032 10.3398 1.744C9.98445 1.38768 9.50252 1.1875 9 1.1875C8.49749 1.1875 8.01555 1.38768 7.66022 1.744C7.30489 2.10032 7.10526 2.58359 7.10526 3.0875ZM5.92105 3.325V3.0875C5.92105 2.26864 6.24544 1.48333 6.82286 0.904308C7.40027 0.325289 8.18341 0 9 0C9.81659 0 10.5997 0.325289 11.1771 0.904308C11.7546 1.48333 12.0789 2.26864 12.0789 3.0875V3.325H17.4079C17.5649 3.325 17.7155 3.38756 17.8266 3.49891C17.9376 3.61026 18 3.76128 18 3.91875C18 4.07622 17.9376 4.22724 17.8266 4.33859C17.7155 4.44994 17.5649 4.5125 17.4079 4.5125H16.0262L15.0788 15.8441C15.0068 16.7046 14.6151 17.5066 13.9812 18.0911C13.3473 18.6757 12.5176 19 11.6564 19H6.34358C5.48251 18.9999 4.65289 18.6755 4.01912 18.091C3.38534 17.5065 2.99366 16.7045 2.92168 15.8441L1.97432 4.5125H0.592105C0.435069 4.5125 0.284465 4.44994 0.173424 4.33859C0.0623823 4.22724 0 4.07622 0 3.91875C0 3.76128 0.0623823 3.61026 0.173424 3.49891C0.284465 3.38756 0.435069 3.325 0.592105 3.325H5.92105ZM4.10163 15.7448C4.14878 16.3086 4.4054 16.834 4.82064 17.2169C5.23588 17.5999 5.77943 17.8125 6.34358 17.8125H11.6564C12.2207 17.8126 12.7643 17.6001 13.1797 17.2171C13.595 16.8341 13.8517 16.3086 13.8988 15.7448L14.8377 4.5125H3.16232L4.10163 15.7448ZM7.81579 7.71875C7.81579 7.64078 7.80047 7.56357 7.77072 7.49153C7.74096 7.4195 7.69735 7.35404 7.64237 7.2989C7.58738 7.24377 7.52211 7.20004 7.45027 7.1702C7.37844 7.14036 7.30144 7.125 7.22368 7.125C7.14593 7.125 7.06893 7.14036 6.9971 7.1702C6.92526 7.20004 6.85998 7.24377 6.805 7.2989C6.75002 7.35404 6.70641 7.4195 6.67665 7.49153C6.64689 7.56357 6.63158 7.64078 6.63158 7.71875V14.6062C6.63158 14.6842 6.64689 14.7614 6.67665 14.8335C6.70641 14.9055 6.75002 14.971 6.805 15.0261C6.85998 15.0812 6.92526 15.125 6.9971 15.1548C7.06893 15.1846 7.14593 15.2 7.22368 15.2C7.30144 15.2 7.37844 15.1846 7.45027 15.1548C7.52211 15.125 7.58738 15.0812 7.64237 15.0261C7.69735 14.971 7.74096 14.9055 7.77072 14.8335C7.80047 14.7614 7.81579 14.6842 7.81579 14.6062V7.71875ZM10.7763 7.125C11.1032 7.125 11.3684 7.391 11.3684 7.71875V14.6062C11.3684 14.7637 11.306 14.9147 11.195 15.0261C11.084 15.1374 10.9334 15.2 10.7763 15.2C10.6193 15.2 10.4687 15.1374 10.3576 15.0261C10.2466 14.9147 10.1842 14.7637 10.1842 14.6062V7.71875C10.1842 7.391 10.4495 7.125 10.7763 7.125Z" fill="#F67952"/>
</svg>
